<?xml version="1.0" standalone="no"?>
<!DOCTYPE svg PUBLIC "-//W3C//DTD SVG 20010904//EN"
 "http://www.w3.org/TR/2001/REC-SVG-20010904/DTD/svg10.dtd">
<svg version="1.0" xmlns="http://www.w3.org/2000/svg"
 width="800.000000pt" height="800.000000pt" viewBox="0 0 800.000000 800.000000"
 preserveAspectRatio="xMidYMid meet">
<metadata>
Created by potrace 1.14, written by Peter Selinger 2001-2017
</metadata>
<g transform="translate(0.000000,800.000000) scale(0.100000,-0.100000)"
fill="#000000" stroke="none">
<path d="M2675 4839 c-59 -18 -95 -64 -97 -123 -2 -65 18 -89 189 -227 92 -74
243 -196 337 -271 l171 -138 203 0 c111 0 202 2 202 4 0 2 -135 113 -300 246
-165 134 -303 247 -306 251 -3 5 407 9 940 9 583 0 946 -4 946 -9 0 -6 -76
-115 -170 -243 -93 -128 -216 -297 -272 -375 -57 -79 -201 -279 -320 -445
-199 -275 -218 -305 -218 -342 0 -52 28 -98 72 -119 33 -16 55 -15 339 3 366
23 380 25 415 52 71 57 71 189 -1 246 -23 18 -25 23 -11 28 43 16 61 126 31
184 -21 40 -62 59 -145 68 l-69 7 54 75 c31 41 61 82 68 90 7 8 80 109 162
224 83 114 218 303 302 419 83 116 154 223 157 238 12 63 -30 132 -93 149 -47
13 -2544 12 -2586 -1z m2016 -1342 c7 -15 7 -31 0 -50 l-11 -27 -116 0 -116 0
27 38 c16 20 33 43 38 50 6 8 37 12 88 12 73 0 80 -2 90 -23z m7 -199 c20 -20
15 -86 -7 -98 -21 -11 -401 -15 -401 -3 0 3 18 30 40 60 l41 53 157 0 c110 0
162 -4 170 -12z"/>
<path d="M1300 3637 c0 -1 -43 -124 -95 -272 -52 -148 -95 -273 -95 -277 0 -4
34 -8 75 -8 l75 0 17 60 16 60 96 0 96 0 18 -60 17 -60 81 0 c61 0 80 3 76 13
-2 6 -47 132 -98 279 l-94 268 -92 0 c-51 0 -93 -1 -93 -3z m122 -232 l25 -85
-58 0 -58 0 15 48 c8 26 19 64 26 85 6 20 14 37 18 37 3 0 18 -38 32 -85z"/>
<path d="M1760 3360 l0 -280 189 0 189 0 11 50 c18 85 26 80 -114 80 l-125 0
0 215 0 215 -75 0 -75 0 0 -280z"/>
<path d="M2240 3361 l0 -281 75 0 75 0 0 85 0 85 68 0 c147 0 224 50 237 154
14 106 -15 179 -81 211 -32 16 -69 20 -206 23 l-168 4 0 -281z m284 140 c10
-9 16 -29 16 -57 0 -55 -24 -74 -97 -74 l-53 0 0 76 0 76 59 -4 c33 -2 66 -10
75 -17z"/>
<path d="M2790 3360 l0 -280 75 0 75 0 0 105 0 105 95 0 95 0 0 -105 0 -105
74 0 c69 0 74 2 77 23 2 12 3 138 1 280 l-3 257 -74 0 -75 0 0 -105 0 -105
-95 0 -95 0 0 105 0 105 -75 0 -75 0 0 -280z"/>
<path d="M3461 3373 c-52 -148 -96 -274 -99 -281 -3 -10 13 -12 74 -10 l78 3
16 55 16 55 95 3 96 3 18 -61 18 -60 79 0 c43 0 78 3 78 7 0 3 -37 110 -81
237 -45 127 -88 250 -96 274 l-15 42 -92 0 -92 0 -93 -267z m239 -50 c0 -2
-25 -3 -55 -3 -39 0 -55 4 -55 13 0 11 28 106 47 157 4 11 61 -142 63 -167z"/>
<path d="M4930 3438 c0 -112 5 -220 10 -240 13 -47 55 -97 95 -114 93 -38 256
-25 319 27 56 47 66 96 66 331 l0 199 -77 -3 -78 -3 -5 -208 c-5 -192 -7 -210
-24 -223 -29 -21 -99 -18 -127 5 -24 19 -24 23 -27 225 l-3 206 -75 0 -74 0 0
-202z"/>
<path d="M5490 3361 l0 -281 75 0 75 0 0 90 0 90 39 0 39 0 42 -86 c22 -47 47
-87 54 -90 7 -3 45 -4 84 -2 l72 3 -57 98 -56 98 36 30 c46 38 61 84 54 167
-6 75 -25 106 -82 136 -33 17 -63 20 -207 24 l-168 5 0 -282z m297 133 c18
-24 16 -65 -3 -92 -13 -19 -24 -22 -80 -22 l-64 0 0 64 c0 73 2 75 85 70 33
-2 54 -9 62 -20z"/>
<path d="M6183 3630 c-56 -12 -96 -33 -127 -70 -36 -44 -41 -68 -41 -205 0
-137 5 -161 41 -205 48 -56 74 -64 240 -68 202 -5 194 -13 194 178 l0 140
-105 0 c-93 0 -105 -2 -105 -17 0 -10 -3 -35 -6 -55 -6 -37 -6 -37 32 -40 37
-3 39 -5 42 -40 l3 -38 -68 0 c-37 0 -73 4 -79 8 -25 16 -34 56 -34 145 0 136
5 141 148 145 l110 4 21 55 c12 30 21 59 21 64 0 11 -229 10 -287 -1z"/>
</g>
</svg>
